<?xml version="1.0" standalone="no"?>
<!DOCTYPE svg PUBLIC "-//W3C//DTD SVG 20010904//EN"
 "http://www.w3.org/TR/2001/REC-SVG-20010904/DTD/svg10.dtd">
<svg version="1.0" xmlns="http://www.w3.org/2000/svg"
 width="26.000000pt" height="26.000000pt" viewBox="0 0 26.000000 26.000000"
 preserveAspectRatio="xMidYMid meet" >

<g transform="translate(0.000000,26.000000) scale(0.100000,-0.100000)"
fill="#000000" stroke="none">
<path d="M48 249 c-22 -12 -24 -62 -3 -79 21 -17 29 -7 14 18 -7 11 -9 27 -6
36 7 18 42 22 52 6 4 -6 11 -7 17 -4 7 5 4 12 -7 21 -22 15 -43 16 -67 2z"/>
<path d="M130 200 c-24 -24 -25 -38 -4 -68 29 -42 104 -17 104 35 0 20 -38 53
-60 53 -11 0 -29 -9 -40 -20z m70 -21 c9 -15 8 -24 -1 -35 -28 -33 -80 -3 -59
35 14 27 46 27 60 0z"/>
<path d="M17 122 c-18 -20 -23 -72 -7 -72 6 0 10 13 10 30 0 23 5 31 25 36 14
3 25 10 25 15 0 16 -36 10 -53 -9z"/>
<path d="M84 55 c-10 -15 -13 -32 -9 -42 7 -17 8 -16 13 2 8 37 23 45 83 45
58 0 60 -1 66 -30 7 -36 23 -40 23 -7 0 40 -29 57 -98 57 -55 0 -63 -3 -78
-25z"/>
</g>
</svg>
