<?xml version="1.0" standalone="no"?>
<!DOCTYPE svg PUBLIC "-//W3C//DTD SVG 20010904//EN"
 "http://www.w3.org/TR/2001/REC-SVG-20010904/DTD/svg10.dtd">
<svg version="1.0" xmlns="http://www.w3.org/2000/svg"
 width="26.000000pt" height="26.000000pt" viewBox="0 0 26.000000 26.000000"
 preserveAspectRatio="xMidYMid meet">

<g transform="translate(0.000000,26.000000) scale(0.100000,-0.100000)"
fill="#000000" stroke="none">
<path d="M91 246 c-7 -8 -11 -29 -9 -48 2 -39 -25 -90 -56 -104 -24 -10 -34
-58 -15 -80 17 -21 67 -18 81 6 17 26 59 26 76 0 14 -24 64 -27 81 -6 19 22 9
70 -15 80 -29 13 -59 72 -55 108 1 16 -3 36 -9 44 -16 18 -64 18 -79 0z m69
-36 c0 -27 -3 -30 -30 -30 -27 0 -30 3 -30 30 0 27 3 30 30 30 27 0 30 -3 30
-30z m19 -76 c10 -22 9 -30 -4 -44 -8 -9 -15 -22 -15 -28 0 -7 -13 -12 -30
-12 -16 0 -30 5 -30 12 0 6 -7 19 -15 28 -13 14 -14 22 -4 44 10 21 19 26 49
26 30 0 39 -5 49 -26z m-99 -84 c0 -27 -3 -30 -30 -30 -27 0 -30 3 -30 30 0
27 3 30 30 30 27 0 30 -3 30 -30z m160 0 c0 -27 -3 -30 -30 -30 -27 0 -30 3
-30 30 0 27 3 30 30 30 27 0 30 -3 30 -30z"/>
</g>
</svg>
